<svg width="247" height="302" viewBox="0 0 247 302" fill="none" xmlns="http://www.w3.org/2000/svg">
<path d="M187.141 16.4H2.1405V265.7H187.141V16.4Z" fill="#103178"/>
<path d="M187.14 267.6H2.14049C1.14049 267.6 0.240479 266.8 0.240479 265.7V16.4C0.240479 15.4 1.04049 14.5 2.14049 14.5H187.14C188.14 14.5 189.04 15.3 189.04 16.4V265.7C188.94 266.7 188.14 267.6 187.14 267.6ZM3.94048 263.8H185.24V18.2H3.94048V263.8Z" fill="#093F68"/>
<path d="M201.04 1.90002H16.0405V251.2H201.04V1.90002Z" fill="white"/>
<path d="M201.04 253.1H16.0405C15.0405 253.1 14.1405 252.3 14.1405 251.2V1.9C14.1405 0.900002 14.9405 0 16.0405 0H201.04C202.04 0 202.94 0.800002 202.94 1.9V251.2C202.94 252.2 202.14 253.1 201.04 253.1ZM17.9405 249.4H199.241V3.8H17.9405V249.4Z" fill="#093F68"/>
<path d="M102.797 33H38.203C35.9909 33 34 31.1053 34 28.5C34 26.1316 35.7697 24 38.203 24H102.797C105.009 24 107 25.8948 107 28.5C107 30.8684 105.009 33 102.797 33Z" fill="#DFEAEF"/>
<path d="M139.918 58H39.0819C36.4072 58 34 57.1579 34 56C34 54.9474 36.1397 54 39.0819 54H139.918C142.593 54 145 54.8421 145 56C145 57.0526 142.593 58 139.918 58Z" fill="#DFEAEF"/>
<path d="M108.429 79H37.5711C35.6916 79 34 78.1579 34 77C34 75.9474 35.5036 75 37.5711 75H108.429C110.308 75 112 75.8421 112 77C112 78.0526 110.308 79 108.429 79Z" fill="#DFEAEF"/>
<path d="M125.605 101H38.3952C36.0819 101 34 100.158 34 99C34 97.9474 35.8506 97 38.3952 97H125.605C127.918 97 130 97.8421 130 99C130 100.053 127.918 101 125.605 101Z" fill="#DFEAEF"/>
<path d="M108.429 129H37.5711C35.6916 129 34 128.158 34 127C34 125.947 35.5036 125 37.5711 125H108.429C110.308 125 112 125.842 112 127C112 128.053 110.308 129 108.429 129Z" fill="#DFEAEF"/>
<path d="M175.74 186.4H164.94C163.94 186.4 163.04 185.6 163.04 184.5C163.04 183.5 163.84 182.6 164.94 182.6H175.74C176.74 182.6 177.64 183.4 177.64 184.5C177.64 185.6 176.74 186.4 175.74 186.4Z" fill="#DFEAEF"/>
<path d="M148.84 186.4H138.04C137.04 186.4 136.141 185.6 136.141 184.5C136.141 183.5 136.94 182.6 138.04 182.6H148.84C149.84 182.6 150.741 183.4 150.741 184.5C150.741 185.6 149.94 186.4 148.84 186.4Z" fill="#DFEAEF"/>
<path d="M175.741 204.2H138.04C137.04 204.2 136.141 203.4 136.141 202.3C136.141 201.3 136.94 200.4 138.04 200.4H175.741C176.741 200.4 177.641 201.2 177.641 202.3C177.641 203.4 176.741 204.2 175.741 204.2Z" fill="#DFEAEF"/>
<path d="M155.141 222H138.04C137.04 222 136.141 221.2 136.141 220.1C136.141 219.1 136.94 218.2 138.04 218.2H155.141C156.141 218.2 157.04 219 157.04 220.1C157.04 221.1 156.141 222 155.141 222Z" fill="#DFEAEF"/>
<path d="M146.788 161.083L134.924 167.933L160.074 211.494L171.938 204.644L146.788 161.083Z" fill="#103178"/>
<path d="M172.888 206.29L161.024 213.14C160.158 213.64 158.978 213.397 158.428 212.444L133.278 168.883C132.778 168.017 133.021 166.838 133.974 166.288L145.838 159.438C146.704 158.938 147.884 159.181 148.434 160.133L173.584 203.694C174.084 204.56 173.841 205.74 172.888 206.29ZM160.819 208.985L169.479 203.985L146.179 163.629L137.519 168.629L160.819 208.985Z" fill="#103178"/>
<path d="M157.367 205.205L167.845 199.155C169.404 198.255 171.453 198.804 172.353 200.363L211.353 267.913C212.253 269.472 211.704 271.521 210.145 272.421L199.667 278.471C198.108 279.371 196.059 278.822 195.159 277.263L156.159 209.713C155.259 208.154 155.808 206.105 157.367 205.205Z" fill="#FFBC0E"/>
<path d="M208.721 275.553L203.178 278.753C199.281 281.003 194.363 279.685 192.113 275.788L156.013 213.261C153.763 209.364 155.081 204.446 158.978 202.196L164.521 198.996C168.418 196.746 173.335 198.064 175.585 201.961L211.685 264.488C213.885 268.299 212.618 273.303 208.721 275.553ZM160.828 205.401C158.75 206.601 157.967 209.246 159.217 211.411L195.317 273.938C196.517 276.017 199.163 276.799 201.328 275.549L206.871 272.349C208.949 271.149 209.681 268.417 208.481 266.338L172.381 203.811C171.181 201.733 168.449 201.001 166.371 202.201L160.828 205.401Z" fill="#103178"/>
<path d="M169.908 126.892C159.062 104.591 132.192 95.305 109.892 106.15C87.5911 116.996 78.3049 143.866 89.1503 166.167C99.9958 188.467 126.866 197.753 149.167 186.908C171.467 176.063 180.753 149.192 169.908 126.892Z" fill="#FFBC0E"/>
<path d="M152.956 186.967C130.613 199.867 101.976 192.267 89.0265 169.837C76.0765 147.407 83.7264 118.857 106.156 105.907C128.5 93.0069 157.136 100.607 170.086 123.037C182.986 145.38 175.3 174.067 152.956 186.967ZM108.006 109.111C87.3951 121.011 80.2808 147.289 92.0942 167.95C103.908 188.612 130.272 195.676 150.933 183.863C171.595 172.049 178.659 145.685 166.846 125.023C166.846 125.023 166.846 125.023 166.796 124.937C154.946 104.412 128.581 97.3478 108.006 109.111Z" fill="#103178"/>
<path d="M145.37 174.027C160.58 165.245 165.791 145.797 157.009 130.587C148.228 115.377 128.78 110.166 113.57 118.947C98.3602 127.729 93.1489 147.177 101.93 162.387C110.712 177.597 130.16 182.808 145.37 174.027Z" fill="white"/>
<path d="M146.406 175.622C130.298 184.922 109.758 179.345 100.508 163.323C91.258 147.302 96.785 126.675 112.806 117.425C128.915 108.125 149.455 113.702 158.705 129.723C167.955 145.745 162.465 166.235 146.406 175.622ZM114.606 120.543C100.317 128.793 95.4123 147.097 103.662 161.387C111.912 175.676 130.217 180.581 144.506 172.331C158.796 164.081 163.701 145.776 155.451 131.487C147.201 117.197 128.896 112.293 114.606 120.543Z" fill="#103178"/>
<path d="M119.062 165.66C118.196 166.16 116.966 165.83 116.553 164.914C116.303 164.481 116.276 164.035 116.336 163.538L123.693 136.081C123.949 135.125 124.989 134.525 125.945 134.781C126.901 135.037 127.501 136.077 127.245 137.033L119.888 164.49C119.828 164.986 119.495 165.41 119.062 165.66Z" fill="#DFEAEF"/>
<path d="M139.093 162.755C138.227 163.255 137.048 163.012 136.498 162.059C136.248 161.626 136.171 161.093 136.281 160.683L141.758 139.97C141.964 138.927 142.953 138.24 143.909 138.497C144.866 138.753 145.639 139.692 145.383 140.648C145.346 140.785 145.346 140.785 145.309 140.922L139.832 161.635C139.859 162.082 139.526 162.505 139.093 162.755Z" fill="#DFEAEF"/>
</svg>
